<?xml version="1.0" encoding="utf-8"?>
<!-- Generator: Adobe Illustrator 21.1.0, SVG Export Plug-In . SVG Version: 6.00 Build 0)  -->
<svg version="1.1" xmlns="http://www.w3.org/2000/svg" xmlns:xlink="http://www.w3.org/1999/xlink" x="0px" y="0px"
	 viewBox="0 0 1806.2 659.8" style="enable-background:new 0 0 1806.2 659.8;" xml:space="preserve">
<style type="text/css">
	.st0{fill:#695E59;}
	.st1{fill:none;}
	.st2{fill:#534741;}
	.st3{font-family:'Montserrat-Bold';}
	.st4{font-size:36px;}
	.st5{font-size:17px;}
	.st6{fill:#93278F;}
	.st7{fill:#43BC0A;}
	.st8{fill:#9B989B;}
</style>
<g id="Layer_2">
</g>
<g id="Layer_1">
	<g>
		<g>
			<g>
				<polygon class="st0" points="969.1,331.6 958.7,349.5 951.4,349.5 959.9,334.7 795.1,334.7 795.1,328.4 959.9,328.4 
					951.4,313.6 958.7,313.6 				"/>
			</g>
		</g>
	</g>
	<rect x="1205.4" y="55.5" class="st1" width="284.4" height="46"/>
	<text transform="matrix(1 0 0 1 1205.3842 82.2036)" class="st2 st3 st4">Clustered Data</text>
	<rect x="155.2" y="55.2" class="st1" width="621.3" height="46.7"/>
	<text transform="matrix(1 0 0 1 155.2291 81.8779)" class="st2 st3 st4">All the people using the internet</text>
	<rect x="1060.4" y="590.4" class="st1" width="562.7" height="17.8"/>
	<text transform="matrix(1 0 0 1 1060.3768 603.0303)" class="st3 st5">People using the internet abnormally/potential hackers</text>
	<rect x="1060.4" y="560" class="st1" width="344" height="13.3"/>
	<text transform="matrix(1 0 0 1 1060.3768 572.614)" class="st3 st5">People using the internet regularly</text>
	<circle class="st6" cx="1035.7" cy="566.2" r="10"/>
	<circle class="st7" cx="1035.7" cy="596.7" r="10"/>
	<circle class="st8" cx="720.2" cy="405.7" r="11.3"/>
	<circle class="st8" cx="704.7" cy="433.7" r="11.3"/>
	<circle class="st8" cx="735.7" cy="445" r="11.3"/>
	<circle class="st8" cx="435.7" cy="185.3" r="11.3"/>
	<circle class="st8" cx="424.3" cy="216.3" r="11.3"/>
	<circle class="st8" cx="694.6" cy="473" r="11.3"/>
	<circle class="st8" cx="396.4" cy="200.8" r="11.3"/>
	<circle class="st8" cx="472" cy="200.8" r="11.3"/>
	<circle class="st8" cx="449.3" cy="231.8" r="11.3"/>
	<circle class="st8" cx="621.7" cy="388" r="11.3"/>
	<circle class="st8" cx="610.4" cy="419" r="11.3"/>
	<circle class="st8" cx="593.7" cy="372.5" r="11.3"/>
	<circle class="st8" cx="582.4" cy="403.5" r="11.3"/>
	<circle class="st8" cx="658" cy="403.5" r="11.3"/>
	<circle class="st8" cx="635.3" cy="434.5" r="11.3"/>
	<circle class="st8" cx="666.3" cy="367.8" r="11.3"/>
	<circle class="st8" cx="638.4" cy="352.3" r="11.3"/>
	<circle class="st8" cx="536.3" cy="314.4" r="11.3"/>
	<circle class="st8" cx="524.9" cy="345.5" r="11.3"/>
	<circle class="st8" cx="508.3" cy="298.9" r="11.3"/>
	<circle class="st8" cx="496.9" cy="329.9" r="11.3"/>
	<circle class="st8" cx="519.6" cy="232.2" r="11.3"/>
	<circle class="st8" cx="508.3" cy="263.2" r="11.3"/>
	<circle class="st8" cx="491.6" cy="216.7" r="11.3"/>
	<circle class="st8" cx="480.3" cy="247.7" r="11.3"/>
	<circle class="st8" cx="592.2" cy="298.9" r="11.3"/>
	<circle class="st8" cx="592.2" cy="341.3" r="11.3"/>
	<circle class="st8" cx="564.2" cy="329.9" r="11.3"/>
	<circle class="st8" cx="552.9" cy="361" r="11.3"/>
	<circle class="st8" cx="583.9" cy="263.2" r="11.3"/>
	<circle class="st8" cx="564.2" cy="282.9" r="11.3"/>
	<circle class="st8" cx="555.9" cy="247.7" r="11.3"/>
	<circle class="st8" cx="533.2" cy="278.7" r="11.3"/>
	<circle class="st8" cx="592.2" cy="227.5" r="11.3"/>
	<circle class="st8" cx="564.2" cy="212" r="11.3"/>
	<circle class="st8" cx="620.2" cy="271.5" r="11.3"/>
	<circle class="st8" cx="536.3" cy="196.5" r="11.3"/>
	<circle class="st8" cx="661.8" cy="334.1" r="11.3"/>
	<circle class="st8" cx="645.2" cy="287.6" r="11.3"/>
	<circle class="st8" cx="633.8" cy="318.6" r="11.3"/>
	<circle class="st8" cx="656.5" cy="220.9" r="11.3"/>
	<circle class="st8" cx="645.2" cy="251.9" r="11.3"/>
	<circle class="st8" cx="628.5" cy="205.4" r="11.3"/>
	<circle class="st8" cx="617.2" cy="236.4" r="11.3"/>
	<circle class="st8" cx="357" cy="226.4" r="11.3"/>
	<circle class="st8" cx="368.4" cy="195.4" r="11.3"/>
	<circle class="st8" cx="385" cy="241.9" r="11.3"/>
	<circle class="st8" cx="704.7" cy="349.7" r="11.3"/>
	<circle class="st8" cx="735.7" cy="377.7" r="11.3"/>
	<circle class="st8" cx="292.8" cy="195.4" r="11.3"/>
	<circle class="st8" cx="688.6" cy="377.7" r="11.3"/>
	<circle class="st8" cx="320.7" cy="210.9" r="11.3"/>
	<circle class="st8" cx="684.5" cy="408.7" r="11.3"/>
	<circle class="st8" cx="284.4" cy="231.2" r="11.3"/>
	<circle class="st8" cx="312.4" cy="246.7" r="11.3"/>
	<circle class="st8" cx="256.5" cy="187.1" r="11.3"/>
	<circle class="st8" cx="340.4" cy="262.2" r="11.3"/>
	<circle class="st8" cx="238.3" cy="221.2" r="11.3"/>
	<circle class="st8" cx="182.3" cy="236.7" r="11.3"/>
	<circle class="st8" cx="182.3" cy="194.4" r="11.3"/>
	<circle class="st8" cx="210.3" cy="205.7" r="11.3"/>
	<circle class="st8" cx="190.7" cy="272.5" r="11.3"/>
	<circle class="st8" cx="210.3" cy="252.8" r="11.3"/>
	<circle class="st8" cx="218.6" cy="288" r="11.3"/>
	<circle class="st8" cx="182.3" cy="308.2" r="11.3"/>
	<circle class="st8" cx="210.3" cy="323.7" r="11.3"/>
	<circle class="st8" cx="154.4" cy="264.2" r="11.3"/>
	<circle class="st8" cx="708.9" cy="268.8" r="11.3"/>
	<circle class="st8" cx="739.9" cy="280.1" r="11.3"/>
	<circle class="st8" cx="693.4" cy="296.8" r="11.3"/>
	<circle class="st8" cx="724.4" cy="308.1" r="11.3"/>
	<circle class="st8" cx="220.2" cy="237.8" r="11.3"/>
	<circle class="st8" cx="231.5" cy="206.8" r="11.3"/>
	<circle class="st8" cx="248.1" cy="253.3" r="11.3"/>
	<circle class="st8" cx="259.5" cy="222.3" r="11.3"/>
	<circle class="st8" cx="693.4" cy="212.8" r="11.3"/>
	<circle class="st8" cx="735.7" cy="212.8" r="11.3"/>
	<g>
		<circle class="st7" cx="1571" cy="422.8" r="11.3"/>
		<circle class="st7" cx="1603.8" cy="422.8" r="11.3"/>
		<circle class="st7" cx="1571" cy="392.9" r="11.3"/>
		<circle class="st7" cx="1603.8" cy="392.9" r="11.3"/>
		<circle class="st7" cx="1571" cy="363" r="11.3"/>
		<circle class="st7" cx="1603.8" cy="363" r="11.3"/>
		<circle class="st7" cx="1571" cy="333.2" r="11.3"/>
		<circle class="st7" cx="1603.8" cy="333.2" r="11.3"/>
		<circle class="st7" cx="1571" cy="303.3" r="11.3"/>
		<circle class="st7" cx="1603.8" cy="303.3" r="11.3"/>
		<circle class="st7" cx="1571" cy="273.4" r="11.3"/>
		<circle class="st7" cx="1603.8" cy="273.4" r="11.3"/>
		<circle class="st7" cx="1571" cy="243.5" r="11.3"/>
		<circle class="st7" cx="1603.8" cy="243.5" r="11.3"/>
		<circle class="st7" cx="1571" cy="213.7" r="11.3"/>
		<circle class="st7" cx="1603.8" cy="213.7" r="11.3"/>
		<circle class="st7" cx="1538.3" cy="422.8" r="11.3"/>
		<circle class="st7" cx="1538.3" cy="392.9" r="11.3"/>
		<circle class="st7" cx="1538.3" cy="363" r="11.3"/>
		<circle class="st7" cx="1538.3" cy="333.2" r="11.3"/>
		<circle class="st7" cx="1538.3" cy="303.3" r="11.3"/>
		<circle class="st7" cx="1538.3" cy="273.4" r="11.3"/>
		<circle class="st7" cx="1538.3" cy="243.5" r="11.3"/>
		<circle class="st7" cx="1538.3" cy="213.7" r="11.3"/>
	</g>
	<g>
		<circle class="st6" cx="1472.8" cy="422.8" r="11.3"/>
		<circle class="st6" cx="1505.5" cy="422.8" r="11.3"/>
		<circle class="st6" cx="1472.8" cy="392.9" r="11.3"/>
		<circle class="st6" cx="1505.5" cy="392.9" r="11.3"/>
		<circle class="st6" cx="1472.8" cy="363" r="11.3"/>
		<circle class="st6" cx="1505.5" cy="363" r="11.3"/>
		<circle class="st6" cx="1472.8" cy="333.2" r="11.3"/>
		<circle class="st6" cx="1505.5" cy="333.2" r="11.3"/>
		<circle class="st6" cx="1472.8" cy="303.3" r="11.3"/>
		<circle class="st6" cx="1505.5" cy="303.3" r="11.3"/>
		<circle class="st6" cx="1472.8" cy="273.4" r="11.3"/>
		<circle class="st6" cx="1505.5" cy="273.4" r="11.3"/>
		<circle class="st6" cx="1472.8" cy="243.5" r="11.3"/>
		<circle class="st6" cx="1505.5" cy="243.5" r="11.3"/>
		<circle class="st6" cx="1472.8" cy="213.7" r="11.3"/>
		<circle class="st6" cx="1505.5" cy="213.7" r="11.3"/>
		<circle class="st6" cx="1407.3" cy="422.8" r="11.3"/>
		<circle class="st6" cx="1440" cy="422.8" r="11.3"/>
		<circle class="st6" cx="1407.3" cy="392.9" r="11.3"/>
		<circle class="st6" cx="1440" cy="392.9" r="11.3"/>
		<circle class="st6" cx="1407.3" cy="363" r="11.3"/>
		<circle class="st6" cx="1440" cy="363" r="11.3"/>
		<circle class="st6" cx="1407.3" cy="333.2" r="11.3"/>
		<circle class="st6" cx="1440" cy="333.2" r="11.3"/>
		<circle class="st6" cx="1407.3" cy="303.3" r="11.3"/>
		<circle class="st6" cx="1440" cy="303.3" r="11.3"/>
		<circle class="st6" cx="1407.3" cy="273.4" r="11.3"/>
		<circle class="st6" cx="1440" cy="273.4" r="11.3"/>
		<circle class="st6" cx="1407.3" cy="243.5" r="11.3"/>
		<circle class="st6" cx="1440" cy="243.5" r="11.3"/>
		<circle class="st6" cx="1407.3" cy="213.7" r="11.3"/>
		<circle class="st6" cx="1440" cy="213.7" r="11.3"/>
		<circle class="st6" cx="1341.8" cy="422.8" r="11.3"/>
		<circle class="st6" cx="1374.6" cy="422.8" r="11.3"/>
		<circle class="st6" cx="1341.8" cy="392.9" r="11.3"/>
		<circle class="st6" cx="1374.6" cy="392.9" r="11.3"/>
		<circle class="st6" cx="1341.8" cy="363" r="11.3"/>
		<circle class="st6" cx="1374.6" cy="363" r="11.3"/>
		<circle class="st6" cx="1341.8" cy="333.2" r="11.3"/>
		<circle class="st6" cx="1374.6" cy="333.2" r="11.3"/>
		<circle class="st6" cx="1341.8" cy="303.3" r="11.3"/>
		<circle class="st6" cx="1374.6" cy="303.3" r="11.3"/>
		<circle class="st6" cx="1341.8" cy="273.4" r="11.3"/>
		<circle class="st6" cx="1374.6" cy="273.4" r="11.3"/>
		<circle class="st6" cx="1341.8" cy="243.5" r="11.3"/>
		<circle class="st6" cx="1374.6" cy="243.5" r="11.3"/>
		<circle class="st6" cx="1341.8" cy="213.7" r="11.3"/>
		<circle class="st6" cx="1374.6" cy="213.7" r="11.3"/>
		<circle class="st6" cx="1276.3" cy="422.8" r="11.3"/>
		<circle class="st6" cx="1309.1" cy="422.8" r="11.3"/>
		<circle class="st6" cx="1276.3" cy="392.9" r="11.3"/>
		<circle class="st6" cx="1309.1" cy="392.9" r="11.3"/>
		<circle class="st6" cx="1276.3" cy="363" r="11.3"/>
		<circle class="st6" cx="1309.1" cy="363" r="11.3"/>
		<circle class="st6" cx="1276.3" cy="333.2" r="11.3"/>
		<circle class="st6" cx="1309.1" cy="333.2" r="11.3"/>
		<circle class="st6" cx="1276.3" cy="303.3" r="11.3"/>
		<circle class="st6" cx="1309.1" cy="303.3" r="11.3"/>
		<circle class="st6" cx="1276.3" cy="273.4" r="11.3"/>
		<circle class="st6" cx="1309.1" cy="273.4" r="11.3"/>
		<circle class="st6" cx="1276.3" cy="243.5" r="11.3"/>
		<circle class="st6" cx="1309.1" cy="243.5" r="11.3"/>
		<circle class="st6" cx="1276.3" cy="213.7" r="11.3"/>
		<circle class="st6" cx="1309.1" cy="213.7" r="11.3"/>
		<circle class="st6" cx="1210.8" cy="422.8" r="11.3"/>
		<circle class="st6" cx="1243.6" cy="422.8" r="11.3"/>
		<circle class="st6" cx="1210.8" cy="392.9" r="11.3"/>
		<circle class="st6" cx="1243.6" cy="392.9" r="11.3"/>
		<circle class="st6" cx="1210.8" cy="363" r="11.3"/>
		<circle class="st6" cx="1243.6" cy="363" r="11.3"/>
		<circle class="st6" cx="1210.8" cy="333.2" r="11.3"/>
		<circle class="st6" cx="1243.6" cy="333.2" r="11.3"/>
		<circle class="st6" cx="1210.8" cy="303.3" r="11.3"/>
		<circle class="st6" cx="1243.6" cy="303.3" r="11.3"/>
		<circle class="st6" cx="1210.8" cy="273.4" r="11.3"/>
		<circle class="st6" cx="1243.6" cy="273.4" r="11.3"/>
		<circle class="st6" cx="1210.8" cy="243.5" r="11.3"/>
		<circle class="st6" cx="1243.6" cy="243.5" r="11.3"/>
		<circle class="st6" cx="1210.8" cy="213.7" r="11.3"/>
		<circle class="st6" cx="1243.6" cy="213.7" r="11.3"/>
		<circle class="st6" cx="1145.3" cy="422.8" r="11.3"/>
		<circle class="st6" cx="1178.1" cy="422.8" r="11.3"/>
		<circle class="st6" cx="1145.3" cy="392.9" r="11.3"/>
		<circle class="st6" cx="1178.1" cy="392.9" r="11.3"/>
		<circle class="st6" cx="1145.3" cy="363" r="11.3"/>
		<circle class="st6" cx="1178.1" cy="363" r="11.3"/>
		<circle class="st6" cx="1145.3" cy="333.2" r="11.3"/>
		<circle class="st6" cx="1178.1" cy="333.2" r="11.3"/>
		<circle class="st6" cx="1145.3" cy="303.3" r="11.3"/>
		<circle class="st6" cx="1178.1" cy="303.3" r="11.3"/>
		<circle class="st6" cx="1145.3" cy="273.4" r="11.3"/>
		<circle class="st6" cx="1178.1" cy="273.4" r="11.3"/>
		<circle class="st6" cx="1145.3" cy="243.5" r="11.3"/>
		<circle class="st6" cx="1178.1" cy="243.5" r="11.3"/>
		<circle class="st6" cx="1145.3" cy="213.7" r="11.3"/>
		<circle class="st6" cx="1178.1" cy="213.7" r="11.3"/>
		<circle class="st6" cx="1079.9" cy="422.8" r="11.3"/>
		<circle class="st6" cx="1112.6" cy="422.8" r="11.3"/>
		<circle class="st6" cx="1079.9" cy="392.9" r="11.3"/>
		<circle class="st6" cx="1112.6" cy="392.9" r="11.3"/>
		<circle class="st6" cx="1079.9" cy="363" r="11.3"/>
		<circle class="st6" cx="1112.6" cy="363" r="11.3"/>
		<circle class="st6" cx="1079.9" cy="333.2" r="11.3"/>
		<circle class="st6" cx="1112.6" cy="333.2" r="11.3"/>
		<circle class="st6" cx="1079.9" cy="303.3" r="11.3"/>
		<circle class="st6" cx="1112.6" cy="303.3" r="11.3"/>
		<circle class="st6" cx="1079.9" cy="273.4" r="11.3"/>
		<circle class="st6" cx="1112.6" cy="273.4" r="11.3"/>
		<circle class="st6" cx="1079.9" cy="243.5" r="11.3"/>
		<circle class="st6" cx="1112.6" cy="243.5" r="11.3"/>
		<circle class="st6" cx="1079.9" cy="213.7" r="11.3"/>
		<circle class="st6" cx="1112.6" cy="213.7" r="11.3"/>
		<circle class="st6" cx="1014.4" cy="422.8" r="11.3"/>
		<circle class="st6" cx="1047.1" cy="422.8" r="11.3"/>
		<circle class="st6" cx="1014.4" cy="392.9" r="11.3"/>
		<circle class="st6" cx="1047.1" cy="392.9" r="11.3"/>
		<circle class="st6" cx="1014.4" cy="363" r="11.3"/>
		<circle class="st6" cx="1047.1" cy="363" r="11.3"/>
		<circle class="st6" cx="1014.4" cy="333.2" r="11.3"/>
		<circle class="st6" cx="1047.1" cy="333.2" r="11.3"/>
		<circle class="st6" cx="1014.4" cy="303.3" r="11.3"/>
		<circle class="st6" cx="1047.1" cy="303.3" r="11.3"/>
		<circle class="st6" cx="1014.4" cy="273.4" r="11.3"/>
		<circle class="st6" cx="1047.1" cy="273.4" r="11.3"/>
		<circle class="st6" cx="1014.4" cy="243.5" r="11.3"/>
		<circle class="st6" cx="1047.1" cy="243.5" r="11.3"/>
		<circle class="st6" cx="1014.4" cy="213.7" r="11.3"/>
		<circle class="st6" cx="1047.1" cy="213.7" r="11.3"/>
	</g>
	<circle class="st8" cx="724.4" cy="240.8" r="11.3"/>
	<circle class="st8" cx="155.9" cy="206.8" r="11.3"/>
	<circle class="st8" cx="175.5" cy="187.1" r="11.3"/>
	<circle class="st8" cx="183.9" cy="222.3" r="11.3"/>
	<circle class="st8" cx="206.5" cy="191.3" r="11.3"/>
	<circle class="st8" cx="147.6" cy="242.5" r="11.3"/>
	<circle class="st8" cx="175.5" cy="258" r="11.3"/>
	<circle class="st8" cx="119.6" cy="198.5" r="11.3"/>
	<circle class="st8" cx="442.5" cy="300" r="11.3"/>
	<circle class="st8" cx="453.8" cy="269" r="11.3"/>
	<circle class="st8" cx="470.5" cy="315.5" r="11.3"/>
	<circle class="st8" cx="481.8" cy="284.5" r="11.3"/>
	<circle class="st8" cx="459.1" cy="382.2" r="11.3"/>
	<circle class="st8" cx="470.5" cy="351.2" r="11.3"/>
	<circle class="st8" cx="487.1" cy="397.7" r="11.3"/>
	<circle class="st8" cx="498.5" cy="366.7" r="11.3"/>
	<circle class="st8" cx="386.5" cy="315.5" r="11.3"/>
	<circle class="st8" cx="386.5" cy="273.1" r="11.3"/>
	<circle class="st8" cx="414.5" cy="284.5" r="11.3"/>
	<circle class="st8" cx="425.9" cy="253.5" r="11.3"/>
	<circle class="st8" cx="394.8" cy="351.2" r="11.3"/>
	<circle class="st8" cx="414.5" cy="331.6" r="11.3"/>
	<circle class="st8" cx="422.8" cy="366.7" r="11.3"/>
	<circle class="st8" cx="445.5" cy="335.7" r="11.3"/>
	<circle class="st8" cx="386.5" cy="387" r="11.3"/>
	<circle class="st8" cx="414.5" cy="402.5" r="11.3"/>
	<circle class="st8" cx="358.5" cy="342.9" r="11.3"/>
	<circle class="st8" cx="442.5" cy="418" r="11.3"/>
	<circle class="st8" cx="305.6" cy="311.3" r="11.3"/>
	<circle class="st8" cx="317" cy="280.3" r="11.3"/>
	<circle class="st8" cx="333.6" cy="326.8" r="11.3"/>
	<circle class="st8" cx="344.9" cy="295.8" r="11.3"/>
	<circle class="st8" cx="322.2" cy="393.6" r="11.3"/>
	<circle class="st8" cx="333.6" cy="362.6" r="11.3"/>
	<circle class="st8" cx="350.2" cy="409.1" r="11.3"/>
	<circle class="st8" cx="361.6" cy="378.1" r="11.3"/>
	<circle class="st8" cx="249.6" cy="326.8" r="11.3"/>
	<circle class="st8" cx="249.6" cy="284.5" r="11.3"/>
	<circle class="st8" cx="277.6" cy="295.8" r="11.3"/>
	<circle class="st8" cx="289" cy="264.8" r="11.3"/>
	<circle class="st8" cx="258" cy="362.6" r="11.3"/>
	<circle class="st8" cx="277.6" cy="342.9" r="11.3"/>
	<circle class="st8" cx="285.9" cy="378.1" r="11.3"/>
	<circle class="st8" cx="308.6" cy="347.1" r="11.3"/>
	<circle class="st8" cx="249.6" cy="398.3" r="11.3"/>
	<circle class="st8" cx="277.6" cy="413.8" r="11.3"/>
	<circle class="st8" cx="221.7" cy="354.2" r="11.3"/>
	<circle class="st8" cx="305.6" cy="429.3" r="11.3"/>
</g>
</svg>
