<?xml version="1.0" encoding="utf-8"?>
<!-- Generator: Adobe Illustrator 21.1.0, SVG Export Plug-In . SVG Version: 6.00 Build 0)  -->
<svg version="1.1" xmlns="http://www.w3.org/2000/svg" xmlns:xlink="http://www.w3.org/1999/xlink" x="0px" y="0px"
	 viewBox="0 0 1467.7 719.6" style="enable-background:new 0 0 1467.7 719.6;" xml:space="preserve">
<style type="text/css">
	.st0{fill:#BC0AB5;}
	.st1{fill:#43BC0A;}
	.st2{fill:#695E59;}
	.st3{fill:none;stroke:#BC0AB5;stroke-width:6.1742;stroke-miterlimit:10;}
	.st4{fill:none;stroke:#43BC0A;stroke-width:6;stroke-miterlimit:10;}
	.st5{opacity:0.64;fill:#BC0AB5;}
	.st6{opacity:0.64;fill:#43BC0A;}
	.st7{opacity:0.64;}
	.st8{opacity:0.64;fill:none;stroke:#BC0AB5;stroke-width:6.1742;stroke-miterlimit:10;}
	.st9{opacity:0.64;fill:none;stroke:#43BC0A;stroke-width:6;stroke-miterlimit:10;}
	.st10{fill:none;}
	.st11{fill:#FFFFFF;}
	.st12{font-family:'Montserrat-Regular';}
	.st13{font-size:70.0428px;}
	.st14{font-size:68.4139px;}
	.st15{fill:#534741;}
	.st16{font-size:39px;}
	.st17{fill:none;stroke:#43BC0A;stroke-width:4.8867;stroke-miterlimit:10;}
	.st18{opacity:0.64;fill:#FFFFFF;}
	.st19{font-size:64px;}
	.st20{opacity:0.64;fill:#534741;}
	.st21{opacity:0.64;fill:none;stroke:#43BC0A;stroke-width:4.8867;stroke-miterlimit:10;}
</style>
<g id="Layer_1">
	<path class="st0" d="M573.2,179.8H153.7c-16.5,0-30-13.5-30-30V40c0-16.5,13.5-30,30-30h419.5c16.5,0,30,13.5,30,30v109.8
		C603.2,166.3,589.7,179.8,573.2,179.8z"/>
	<path class="st1" d="M572,708.6H152.5c-16.5,0-30-13.5-30-30V568.8c0-16.5,13.5-30,30-30H572c16.5,0,30,13.5,30,30v109.8
		C602,695.1,588.5,708.6,572,708.6z"/>
	<g>
		<g>
			<g>
				<polygon class="st2" points="363.4,200.4 392.6,217.3 392.6,229.2 368.6,215.4 368.6,535.4 358.3,535.4 358.3,215.4 
					334.2,229.2 334.2,217.3 				"/>
			</g>
		</g>
	</g>
	<path class="st3" d="M605.5,94.9c142.3,132.4,141.3,364.4-2.2,518.8"/>
	<path class="st4" d="M121.3,94.9C-21,227.2-20,459.3,123.6,613.7"/>
	<path class="st5" d="M1307.8,179.8H888.3c-16.5,0-30-13.5-30-30V40c0-16.5,13.5-30,30-30h419.5c16.5,0,30,13.5,30,30v109.8
		C1337.8,166.3,1324.3,179.8,1307.8,179.8z"/>
	<path class="st6" d="M1306.7,708.6H887.2c-16.5,0-30-13.5-30-30V568.8c0-16.5,13.5-30,30-30h419.5c16.5,0,30,13.5,30,30v109.8
		C1336.7,695.1,1323.2,708.6,1306.7,708.6z"/>
	<g class="st7">
		<g>
			<g>
				<polygon class="st2" points="1098.1,200.4 1127.3,217.3 1127.3,229.2 1103.3,215.4 1103.3,535.4 1092.9,535.4 1092.9,215.4 
					1068.9,229.2 1068.9,217.3 				"/>
			</g>
		</g>
	</g>
	<path class="st8" d="M1340.2,94.9c142.3,132.4,141.3,364.4-2.2,518.8"/>
	<path class="st9" d="M856,94.9c-142.3,132.4-141.3,364.4,2.2,518.8"/>
</g>
<g id="Layer_2">
	<rect x="271.7" y="592.7" class="st10" width="181.2" height="61.9"/>
	<text transform="matrix(1 0 0 1 271.6572 644.7198)" class="st11 st12 st13">Floor</text>
	<rect x="272.8" y="64.6" class="st10" width="181.2" height="61.9"/>
	<text transform="matrix(1 0 0 1 272.8044 115.4117)" class="st11 st12 st14">Child</text>
	<rect x="29.4" y="358.5" class="st10" width="384.6" height="56.8"/>
	<text transform="matrix(1 0 0 1 29.4459 387.3917)" class="st15 st12 st16">Encouragement</text>
	<rect x="29.4" y="240.2" class="st10" width="219.1" height="75.7"/>
	<text transform="matrix(1 0 0 1 29.446 269.1378)" class="st1 st12 st16">Two steps</text>
	<rect x="535.8" y="358.5" class="st10" width="175.8" height="37.9"/>
	<text transform="matrix(1 0 0 1 535.7794 387.3915)" class="st0 st12 st16">Walking</text>
	<line class="st17" x1="107.5" y1="91.3" x2="121.2" y2="96.6"/>
	<line class="st17" x1="119.6" y1="95" x2="119.6" y2="111"/>
	<line class="st3" x1="601.7" y1="608.8" x2="614.8" y2="621.9"/>
	<line class="st3" x1="608.3" y1="592.9" x2="601.5" y2="611.4"/>
	<rect x="880.7" y="595.4" class="st10" width="432.4" height="61.9"/>
	<text transform="matrix(1 0 0 1 880.7173 642.9083)" class="st18 st12 st19">Environment</text>
	<rect x="996.8" y="66.6" class="st10" width="202.5" height="61.9"/>
	<text transform="matrix(1 0 0 1 996.8317 114.0887)" class="st18 st12 st19">Agent</text>
	<rect x="927.9" y="358.5" class="st10" width="159.2" height="56.8"/>
	<text transform="matrix(1 0 0 1 927.8839 387.3917)" class="st20 st12 st16">Reward</text>
	<rect x="764.1" y="240.2" class="st10" width="219.1" height="75.7"/>
	<text transform="matrix(1 0 0 1 764.1093 269.1378)" class="st6 st12 st16">State</text>
	<rect x="1270.4" y="358.5" class="st10" width="175.8" height="37.9"/>
	<text transform="matrix(1 0 0 1 1270.4426 387.3915)" class="st5 st12 st16">Action</text>
	<line class="st21" x1="842.1" y1="91.3" x2="855.9" y2="96.6"/>
	<line class="st21" x1="854.2" y1="95" x2="854.2" y2="111"/>
	<line class="st8" x1="1336.3" y1="608.8" x2="1349.5" y2="621.9"/>
	<line class="st8" x1="1342.9" y1="592.9" x2="1336.2" y2="611.4"/>
</g>
</svg>
