<?xml version="1.0" encoding="utf-8"?>
<!-- Generator: Adobe Illustrator 21.1.0, SVG Export Plug-In . SVG Version: 6.00 Build 0)  -->
<svg version="1.1" id="Layer_1" xmlns="http://www.w3.org/2000/svg" xmlns:xlink="http://www.w3.org/1999/xlink" x="0px" y="0px"
	 viewBox="0 0 866.2 484.5" style="enable-background:new 0 0 866.2 484.5;" xml:space="preserve">
<style type="text/css">
	.st0{opacity:0.19;fill:#BF30BF;}
	.st1{fill:none;stroke:#BC0AB5;stroke-width:3.8159;stroke-miterlimit:10;}
	.st2{fill:none;}
	.st3{fill:#534741;}
	.st4{font-family:'MyriadPro-Regular';}
	.st5{font-size:24px;}
	.st6{font-size:36px;}
	.st7{fill:none;stroke:#BC0AB5;stroke-width:4;stroke-miterlimit:10;}
	.st8{fill:#C429BE;}
</style>
<rect x="575.1" y="322.9" class="st0" width="284" height="151.4"/>
<rect x="575.1" y="7.5" class="st0" width="284" height="251.8"/>
<g>
	<rect x="7" y="7.5" class="st1" width="852.1" height="251.8"/>
	<line class="st1" x1="7" y1="196.4" x2="859.2" y2="196.4"/>
	<line class="st1" x1="7" y1="133.4" x2="859.2" y2="133.4"/>
	<line class="st1" x1="7" y1="70.5" x2="859.2" y2="70.5"/>
	<line class="st1" x1="575.1" y1="7.5" x2="575.1" y2="259.4"/>
	<line class="st1" x1="291.1" y1="7.5" x2="291.1" y2="259.4"/>
</g>
<rect x="7" y="29.4" class="st2" width="284" height="18.5"/>
<text transform="matrix(1 0 0 1 80.9614 46.4381)" class="st3 st4 st5">Years at Work</text>
<rect x="374.2" y="28.3" class="st2" width="119.7" height="19.2"/>
<text transform="matrix(1 0 0 1 374.1971 45.3807)" class="st3 st4 st5">Hourly Rate</text>
<rect x="663.6" y="29.4" class="st2" width="123.9" height="18.5"/>
<text transform="matrix(1 0 0 1 663.6336 46.4381)" class="st3 st4 st5">Attrition</text>
<text transform="matrix(1 0 0 1 130.9859 105.9576)" class="st3 st4 st6">8</text>
<text transform="matrix(1 0 0 1 412.6761 105.9576)" class="st3 st4 st6">92</text>
<text transform="matrix(1 0 0 1 118.3098 181.8731)" class="st3 st4 st6">10</text>
<text transform="matrix(1 0 0 1 130.9857 248.9295)" class="st3 st4 st6">7</text>
<rect x="412" y="150.6" class="st2" width="42.3" height="39.4"/>
<text transform="matrix(1 0 0 1 411.9704 176.1232)" class="st3 st4 st6">62</text>
<rect x="412" y="220.6" class="st2" width="42.3" height="39.4"/>
<text transform="matrix(1 0 0 1 411.9704 246.1936)" class="st3 st4 st6">97</text>
<rect x="412" y="428.4" class="st2" width="42.3" height="39.4"/>
<text transform="matrix(1 0 0 1 411.9704 453.9685)" class="st3 st4 st6">97</text>
<rect x="676.7" y="83.1" class="st2" width="57.7" height="42.3"/>
<text transform="matrix(1 0 0 1 676.7186 108.6583)" class="st3 st4 st6">Yes</text>
<rect x="676.7" y="219.2" class="st2" width="57.7" height="42.3"/>
<text transform="matrix(1 0 0 1 676.7186 244.7851)" class="st3 st4 st6">Yes</text>
<rect x="685.7" y="351.9" class="st2" width="20.4" height="42.3"/>
<text transform="matrix(1 0 0 1 685.7186 377.4193)" class="st3 st4 st6">?</text>
<rect x="686.7" y="427" class="st2" width="20.4" height="42.3"/>
<text transform="matrix(1 0 0 1 686.7186 452.5595)" class="st3 st4 st6">?</text>
<rect x="677" y="148.5" class="st2" width="57.7" height="32.7"/>
<text transform="matrix(1 0 0 1 676.9863 174.0315)" class="st3 st4 st6">No</text>
<g>
	<rect x="7" y="322.9" class="st7" width="852.1" height="154.7"/>
	<line class="st7" x1="7" y1="400.2" x2="859.2" y2="400.2"/>
	<line class="st7" x1="575.1" y1="322.9" x2="575.1" y2="477.5"/>
	<line class="st7" x1="291.1" y1="322.9" x2="291.1" y2="477.5"/>
</g>
<text transform="matrix(1 0 0 1 121.1266 374.0707)" class="st3 st4 st6">5</text>
<text transform="matrix(1 0 0 1 121.1266 450.1271)" class="st3 st4 st6">20</text>
<text transform="matrix(1 0 0 1 411.8171 378.3517)" class="st3 st4 st6">50</text>
<g>
	<g>
		<g>
			<polygon class="st8" points="433.1,311.5 424.1,306.3 424.1,302.6 431.5,306.9 431.5,301.1 431.5,266.4 434.7,266.4 434.7,301.1 
				434.7,306.9 442.1,302.6 442.1,306.3 			"/>
		</g>
	</g>
</g>
</svg>
