<?xml version="1.0" encoding="utf-8"?>
<!-- Generator: Adobe Illustrator 21.1.0, SVG Export Plug-In . SVG Version: 6.00 Build 0)  -->
<svg version="1.1"
	 id="svg2" xmlns:cc="http://creativecommons.org/ns#" xmlns:dc="http://purl.org/dc/elements/1.1/" xmlns:rdf="http://www.w3.org/1999/02/22-rdf-syntax-ns#" xmlns:svg="http://www.w3.org/2000/svg"
	 xmlns="http://www.w3.org/2000/svg" xmlns:xlink="http://www.w3.org/1999/xlink" x="0px" y="0px" viewBox="0 0 144 60"
	 style="enable-background:new 0 0 144 60;" xml:space="preserve">
<style type="text/css">
	.st0{fill:#FFFFFF;}
	.st1{clip-path:url(#SVGID_2_);}
</style>
<g id="layer2">
	<g id="g4516">
		<g id="g4518">
			<path id="path4520" class="st0" d="M82.4,12.1l8.1-3l-8.1-3.2V1.7l13.9,5.6v3.5l-13.9,5.6V12.1z"/>
		</g>
		<g>
			<defs>
				<rect id="SVGID_1_" x="-182" y="-215.3" width="530.1" height="686"/>
			</defs>
			<clipPath id="SVGID_2_">
				<use xlink:href="#SVGID_1_"  style="overflow:visible;"/>
			</clipPath>
			<g id="g4530" class="st1">
				<path id="path4532" class="st0" d="M130.8,28.5h6.1c-0.1-2.4-1.2-3.4-3-3.4C132.5,25.1,131.2,25.9,130.8,28.5 M134.1,38.9
					c-4.7,0-7.9-2.8-7.9-8.2v-0.3c0-5.5,3.4-8.4,7.8-8.4c4.1,0,7.5,2.3,7.5,7.7v2h-10.6c0.2,2.9,1.4,4.1,3.4,4.1
					c1.7,0,2.7-0.9,3-2.1h4.2C140.8,36.6,138.3,38.9,134.1,38.9 M115.2,22.3h4.6v3c1-2.2,2.5-3.2,4.9-3.2v4.5
					c-3.1,0-4.9,0.9-4.9,3.6v8.4h-4.6V22.3L115.2,22.3z M111.9,38.6h-4.6v-2.4c-0.8,1.6-2.3,2.7-4.7,2.7c-2.9,0-5.1-1.8-5.1-5.6v-11
					h4.6v10.4c0,1.9,0.7,2.7,2.4,2.7c1.6,0,2.9-1,2.9-3V22.3h4.6L111.9,38.6L111.9,38.6z M91.7,17.3v4.9h3.1v3.4h-3.1v7.7
					c0,1.2,0.6,1.8,1.6,1.8c0.7,0,1.2-0.1,1.6-0.3v3.6c-0.5,0.2-1.4,0.3-2.6,0.3c-3.6,0-5.2-1.6-5.2-4.9v-8.2h-1.9v-3.4h1.9v-3.1
					L91.7,17.3L91.7,17.3z M68.8,22.3h4.6v2.4c0.8-1.5,2.4-2.8,4.9-2.8c3,0,4.9,1.8,4.9,5.7v10.9h-4.6V28.4c0-1.9-0.8-2.7-2.4-2.7
					c-1.6,0-2.9,1-2.9,3v9.9h-4.6L68.8,22.3L68.8,22.3z M55.4,28.5h6.1c-0.1-2.4-1.2-3.4-3-3.4C57.1,25.1,55.8,25.9,55.4,28.5
					 M58.7,38.9c-4.7,0-7.9-2.8-7.9-8.2v-0.3c0-5.5,3.4-8.4,7.8-8.4c4.1,0,7.5,2.3,7.5,7.7v2H55.3c0.2,2.9,1.4,4.1,3.4,4.1
					c1.7,0,2.7-0.9,3-2.1h4.2C65.4,36.6,62.9,38.9,58.7,38.9 M41.6,38.9c-4.5,0-7.8-2.8-7.8-8.3v-0.2c0-5.5,3.5-8.4,7.8-8.4
					c3.7,0,6.8,1.9,7.1,6.1h-4.4c-0.3-1.6-1.1-2.6-2.7-2.6c-1.9,0-3.3,1.5-3.3,4.7v0.5c0,3.3,1.2,4.8,3.3,4.8c1.6,0,2.7-1.2,3-2.9
					h4.1C48.5,36.3,46,38.9,41.6,38.9 M24.6,38.9c-4.5,0-7.8-2.8-7.8-8.3v-0.2c0-5.5,3.5-8.4,7.8-8.4c3.7,0,6.8,1.9,7.1,6.1h-4.4
					c-0.3-1.6-1.1-2.6-2.7-2.6c-1.9,0-3.3,1.5-3.3,4.7v0.5c0,3.3,1.2,4.8,3.3,4.8c1.6,0,2.7-1.2,3-2.9h4.1
					C31.6,36.3,29,38.9,24.6,38.9 M9.7,33.1v-1.6H7.9c-2.2,0-3.4,0.6-3.4,2.1v0.2c0,1.1,0.7,1.9,2.2,1.9C8.3,35.7,9.7,34.9,9.7,33.1
					 M5.4,38.9c-2.9,0-5.4-1.5-5.4-4.8v-0.2c0-4,3.5-5.3,7.7-5.3h2v-0.8c0-1.6-0.7-2.6-2.4-2.6c-1.5,0-2.3,0.9-2.5,2.1H0.5
					c0.3-3.6,3.2-5.4,7-5.4c3.9,0,6.7,1.7,6.7,5.7v10.9H9.8v-1.9C9,37.9,7.5,38.9,5.4,38.9"/>
			</g>
			<g id="g4534" class="st1">
				<path id="path4536" class="st0" d="M142.6,54.3c0-0.4,0.3-0.7,0.7-0.7c0.4,0,0.7,0.3,0.7,0.7c0,0.4-0.3,0.7-0.7,0.7
					C142.9,55,142.6,54.7,142.6,54.3 M140.5,52.2L140.5,52.2c0-1.5-0.7-2.2-1.8-2.2c-1.1,0-1.8,0.8-1.8,2.1v0.1
					c0,1.4,0.8,2.1,1.7,2.1C139.7,54.3,140.5,53.7,140.5,52.2 M136.1,52.3L136.1,52.3c0-1.8,1.1-3,2.6-3c0.9,0,1.5,0.4,1.8,1v-3.5
					h0.9V55h-0.9v-1c-0.3,0.5-1.1,1.1-1.9,1.1C137.1,55.1,136.1,54,136.1,52.3 M134.2,51.7c-0.1-1.1-0.7-1.6-1.6-1.6
					c-0.9,0-1.5,0.6-1.7,1.6H134.2z M130,52.3L130,52.3c0-1.8,1.1-2.9,2.6-2.9c1.3,0,2.5,0.8,2.5,2.8v0.3H131c0,1.3,0.6,2,1.8,2
					c0.9,0,1.4-0.3,1.5-1h0.9c-0.2,1.1-1.1,1.7-2.4,1.7C131.2,55.1,130,54,130,52.3 M126.6,49.4h0.9v1c0.3-0.6,0.8-1.1,1.8-1.1v0.8
					c-1.1,0.1-1.8,0.4-1.8,1.8v3h-0.9V49.4L126.6,49.4z M124.4,51.7c-0.1-1.1-0.7-1.6-1.6-1.6c-0.9,0-1.5,0.6-1.7,1.6H124.4z
					 M120.2,52.3L120.2,52.3c0-1.8,1.1-2.9,2.6-2.9c1.3,0,2.5,0.8,2.5,2.8v0.3h-4.2c0,1.3,0.6,2,1.8,2c0.9,0,1.4-0.3,1.5-1h0.9
					c-0.2,1.1-1.1,1.7-2.4,1.7C121.3,55.1,120.2,54,120.2,52.3 M114.5,49.4h1l1.6,4.7l1.6-4.7h0.9l-2,5.5h-1.1L114.5,49.4
					L114.5,49.4z M112.4,49.4h0.9V55h-0.9V49.4L112.4,49.4z M112.2,47.7c0-0.3,0.3-0.6,0.6-0.6c0.3,0,0.6,0.3,0.6,0.6
					c0,0.3-0.3,0.6-0.6,0.6C112.5,48.3,112.2,48,112.2,47.7 M109.7,46.8h0.9V55h-0.9V46.8L109.7,46.8z M107.4,51.7
					c-0.1-1.1-0.7-1.6-1.6-1.6c-0.9,0-1.5,0.6-1.7,1.6H107.4L107.4,51.7z M103.2,52.3L103.2,52.3c0-1.8,1.1-2.9,2.6-2.9
					c1.3,0,2.5,0.8,2.5,2.8v0.3h-4.2c0,1.3,0.6,2,1.8,2c0.9,0,1.4-0.3,1.5-1h0.9c-0.2,1.1-1.1,1.7-2.4,1.7
					C104.3,55.1,103.2,54,103.2,52.3 M98.5,54.2c2,0,2.9-1.2,2.9-3v-0.1c0-1.7-0.8-3-2.9-3h-1v6.1L98.5,54.2L98.5,54.2z M96.5,47.4
					h2c2.6,0,3.8,1.6,3.8,3.7v0.1c0,2.1-1.2,3.8-3.9,3.8h-2L96.5,47.4L96.5,47.4z M90.8,54.3c0-0.4,0.3-0.7,0.7-0.7
					c0.4,0,0.7,0.3,0.7,0.7c0,0.4-0.3,0.7-0.7,0.7C91.1,55,90.8,54.7,90.8,54.3 M88.9,51.7c-0.1-1.1-0.7-1.6-1.6-1.6
					c-0.9,0-1.5,0.6-1.7,1.6L88.9,51.7L88.9,51.7z M84.7,52.3L84.7,52.3c0-1.8,1.1-2.9,2.6-2.9c1.3,0,2.5,0.8,2.5,2.8v0.3h-4.2
					c0,1.3,0.6,2,1.8,2c0.9,0,1.4-0.3,1.5-1h0.9c-0.2,1.1-1.1,1.7-2.4,1.7C85.8,55.1,84.7,54,84.7,52.3 M78.6,52.3L78.6,52.3
					c0-1.8,1.2-2.9,2.7-2.9c1.2,0,2.2,0.5,2.4,1.9h-0.9c-0.1-0.9-0.8-1.2-1.5-1.2c-1,0-1.8,0.8-1.8,2.1v0.1c0,1.4,0.7,2.1,1.8,2.1
					c0.8,0,1.5-0.5,1.6-1.4h0.8c-0.1,1.2-1.1,2.1-2.4,2.1C79.8,55.1,78.6,54,78.6,52.3 M72.7,49.4h0.9v0.9c0.3-0.5,0.9-1,1.8-1
					c1.1,0,2,0.6,2,2.2V55h-0.9v-3.5c0-1-0.4-1.4-1.3-1.4c-0.8,0-1.5,0.5-1.5,1.5V55h-0.9L72.7,49.4L72.7,49.4z M70.1,53v-0.7h-0.8
					c-1.1,0-1.9,0.3-1.9,1.1c0,0.6,0.3,0.9,1.1,0.9C69.4,54.4,70.1,53.9,70.1,53 M66.5,53.4c0-1.3,1.4-1.7,2.8-1.7h0.8v-0.4
					c0-0.9-0.3-1.3-1.2-1.3c-0.8,0-1.2,0.3-1.3,1h-0.9c0.1-1.3,1.1-1.7,2.2-1.7c1.1,0,2,0.4,2,2V55h-0.9v-0.7
					c-0.4,0.5-0.9,0.8-1.7,0.8C67.3,55.1,66.5,54.6,66.5,53.4 M57.3,49.4h0.9v0.8c0.3-0.5,0.9-0.9,1.7-0.9c0.7,0,1.3,0.3,1.6,1
					c0.4-0.7,1.2-1,1.9-1c1,0,1.9,0.6,1.9,2.2V55h-0.9v-3.5c0-1-0.4-1.4-1.2-1.4c-0.7,0-1.5,0.5-1.5,1.5V55h-0.9v-3.5
					c0-1-0.4-1.4-1.2-1.4c-0.7,0-1.5,0.5-1.5,1.5V55h-0.9L57.3,49.4L57.3,49.4z M53.3,49.4h0.9v1c0.4-0.6,0.8-1.1,1.8-1.1v0.8
					c-1.1,0.1-1.8,0.4-1.8,1.8v3h-0.9V49.4L53.3,49.4z M51,52.2L51,52.2c0-1.4-0.7-2.2-1.8-2.2c-1.1,0-1.8,0.8-1.8,2.1v0.1
					c0,1.3,0.7,2.1,1.8,2.1C50.3,54.3,51,53.5,51,52.2 M46.5,52.2L46.5,52.2c0-1.7,1.2-2.9,2.7-2.9c1.6,0,2.7,1.2,2.7,2.8v0.1
					c0,1.7-1.2,2.8-2.7,2.8C47.6,55.1,46.5,53.9,46.5,52.2 M43.7,50.2h-0.8v-0.7h0.8v-0.9c0-1.1,0.6-1.8,1.7-1.8
					c0.3,0,0.4,0,0.7,0.1v0.7c-0.2-0.1-0.4-0.1-0.6-0.1c-0.6,0-0.8,0.4-0.8,1v1h1.4v0.7h-1.4V55h-0.9L43.7,50.2L43.7,50.2z
					 M39.2,49.4h0.9v1c0.3-0.6,0.8-1.1,1.8-1.1v0.8c-1.1,0.1-1.8,0.4-1.8,1.8v3h-0.9V49.4L39.2,49.4z M37.1,51.7
					c-0.1-1.1-0.7-1.6-1.6-1.6c-0.9,0-1.5,0.6-1.7,1.6H37.1L37.1,51.7z M33,52.3L33,52.3c0-1.8,1.1-2.9,2.6-2.9
					c1.3,0,2.5,0.8,2.5,2.8v0.3h-4.2c0,1.3,0.6,2,1.8,2c0.9,0,1.4-0.3,1.5-1H38c-0.2,1.1-1.1,1.7-2.4,1.7C34.1,55.1,33,54,33,52.3
					 M31.1,52.3L31.1,52.3c0-1.5-0.8-2.2-1.7-2.2c-1,0-1.8,0.7-1.8,2.1v0.1c0,1.4,0.7,2.1,1.8,2.1C30.5,54.3,31.1,53.6,31.1,52.3
					 M26.7,49.4h0.9v0.9c0.3-0.5,1.1-1,1.9-1c1.5,0,2.5,1.1,2.5,2.8v0.1c0,1.7-1,2.9-2.5,2.9c-0.9,0-1.6-0.5-1.9-1v2.8h-0.9V49.4
					L26.7,49.4z M17.6,46.8h0.9v3.5c0.3-0.5,0.9-1,1.8-1c1.1,0,2,0.6,2,2.2V55h-0.9v-3.5c0-1-0.4-1.4-1.3-1.4
					c-0.8,0-1.5,0.5-1.5,1.5V55h-0.9L17.6,46.8L17.6,46.8z M14.9,52.1L14.9,52.1c0-1.3-0.7-2-1.8-2c-1.1,0-1.8,0.8-1.8,2v0.1
					c0,1.2,0.8,1.9,1.7,1.9C14.1,54.1,14.9,53.3,14.9,52.1 M10.6,55.3h0.9c0.1,0.6,0.7,1,1.6,1c1.1,0,1.8-0.5,1.8-1.7v-0.8
					c-0.3,0.5-1.1,1.1-1.9,1.1c-1.5,0-2.5-1.1-2.5-2.6v-0.1c0-1.5,1.1-2.8,2.6-2.8c0.9,0,1.5,0.4,1.8,1v-0.9h0.9v5.2
					c0,1.6-1.1,2.4-2.7,2.4C11.5,57,10.7,56.2,10.6,55.3 M8.2,49.4h0.9V55H8.2L8.2,49.4L8.2,49.4z M8,47.7c0-0.3,0.3-0.6,0.6-0.6
					c0.3,0,0.6,0.3,0.6,0.6c0,0.3-0.3,0.6-0.6,0.6C8.3,48.3,8.1,48,8,47.7 M0.5,47.4h0.9v3.4h4v-3.4h0.9V55H5.4v-3.4h-4V55H0.5
					L0.5,47.4L0.5,47.4z"/>
			</g>
		</g>
	</g>
</g>
</svg>
